<?xml version="1.0" encoding="utf-8"?>
<!-- Generator: Adobe Illustrator 17.1.0, SVG Export Plug-In . SVG Version: 6.00 Build 0)  -->
<!DOCTYPE svg PUBLIC "-//W3C//DTD SVG 1.1//EN" "http://www.w3.org/Graphics/SVG/1.1/DTD/svg11.dtd">
<svg version="1.1" id="Layer_1" xmlns="http://www.w3.org/2000/svg" xmlns:xlink="http://www.w3.org/1999/xlink" x="0px" y="0px"
	 viewBox="0 0 612 792" enable-background="new 0 0 612 792" xml:space="preserve">
<g id="XMLID_138_">
	<path id="XMLID_142_" fill="#AAAAAA" d="M452.7,294.6c-3.9-10.2-9.2-18.8-17.8-27.4c-8.6-8.6-17.2-13.9-27.4-17.8
		c-9.8-3.8-21.2-6.5-37.5-7.2c-16.5-0.7-21.8-1-63.8-1s-47.3,0.1-63.8,1c-16.5,0.7-27.7,3.3-37.5,7.2c-10.2,3.9-18.8,9.2-27.4,17.8
		s-13.9,17.2-17.8,27.4c-3.8,9.8-6.5,21.2-7.2,37.5c-0.7,16.5-1,21.8-1,63.8s0.1,47.3,1,63.8c0.7,16.5,3.3,27.7,7.2,37.5
		c3.9,10.2,9.2,18.8,17.8,27.4s17.2,13.9,27.4,17.8c9.8,3.8,21.2,6.5,37.5,7.2c16.5,0.7,21.8,1,63.8,1s47.3-0.1,63.8-1
		c16.5-0.7,27.7-3.3,37.5-7.2c10.2-3.9,18.8-9.2,27.4-17.8c8.6-8.6,13.9-17.2,17.8-27.4c3.8-9.8,6.5-21.2,7.2-37.5
		c0.7-16.5,1-21.8,1-63.8s-0.1-47.3-1-63.8C459.1,315.7,456.5,304.4,452.7,294.6z M432,458.5c-0.7,15.1-3.2,23.3-5.4,28.7
		c-2.7,7.2-6.2,12.4-11.6,17.8s-10.5,8.7-17.8,11.6c-5.5,2.2-13.6,4.7-28.7,5.4c-16.4,0.7-21.2,1-62.5,1s-46.3-0.1-62.5-1
		c-15.1-0.7-23.3-3.2-28.7-5.4c-7.2-2.7-12.4-6.2-17.8-11.6s-8.7-10.5-11.6-17.8c-2.2-5.5-4.7-13.6-5.4-28.7
		c-0.7-16.4-1-21.3-1-62.5s0.1-46.3,1-62.5c0.7-15.1,3.2-23.3,5.4-28.7c2.7-7.2,6.2-12.4,11.6-17.8s10.5-8.7,17.8-11.6
		c5.5-2.2,13.6-4.7,28.7-5.4c16.4-0.7,21.3-1,62.5-1s46.3,0.1,62.5,1c15.1,0.7,23.3,3.2,28.7,5.4c7.2,2.7,12.4,6.2,17.8,11.6
		s8.7,10.5,11.6,17.8c2.2,5.5,4.7,13.6,5.4,28.7c0.7,16.4,1,21.3,1,62.5S432.7,442.3,432,458.5z"/>
	<path id="XMLID_145_" fill="#AAAAAA" d="M306,316.5c-43.9,0-79.5,35.6-79.5,79.5s35.6,79.5,79.5,79.5s79.5-35.6,79.5-79.5
		S349.9,316.5,306,316.5z M306,447.6c-28.4,0-51.6-23.1-51.6-51.6c0-28.4,23.1-51.6,51.6-51.6s51.6,23.1,51.6,51.6
		C357.6,424.4,334.4,447.6,306,447.6z"/>
	<circle id="XMLID_143_" fill="#AAAAAA" cx="388.6" cy="313.4" r="18.5"/>
</g>
</svg>
