<?xml version="1.0" encoding="utf-8"?>
<!-- Generator: Adobe Illustrator 17.1.0, SVG Export Plug-In . SVG Version: 6.00 Build 0)  -->
<!DOCTYPE svg PUBLIC "-//W3C//DTD SVG 1.1//EN" "http://www.w3.org/Graphics/SVG/1.1/DTD/svg11.dtd">
<svg version="1.1" id="Layer_1" xmlns="http://www.w3.org/2000/svg" xmlns:xlink="http://www.w3.org/1999/xlink" x="0px" y="0px"
	 viewBox="0 0 50 50" enable-background="new 0 0 50 50" xml:space="preserve">
<g id="XMLID_138_">
	<path id="XMLID_142_" fill="#FFFFFF" d="M34.3,18.6c-0.2-0.6-0.6-1.2-1.1-1.7c-0.5-0.5-1.1-0.9-1.7-1.1c-0.6-0.2-1.3-0.4-2.4-0.5
		c-1,0-1.4-0.1-4-0.1s-3,0-4,0.1c-1,0-1.7,0.2-2.4,0.5c-0.6,0.2-1.2,0.6-1.7,1.1c-0.5,0.5-0.9,1.1-1.1,1.7c-0.2,0.6-0.4,1.3-0.5,2.4
		c0,1-0.1,1.4-0.1,4s0,3,0.1,4c0,1,0.2,1.7,0.5,2.4c0.2,0.6,0.6,1.2,1.1,1.7c0.5,0.5,1.1,0.9,1.7,1.1c0.6,0.2,1.3,0.4,2.4,0.5
		c1,0,1.4,0.1,4,0.1s3,0,4-0.1c1,0,1.7-0.2,2.4-0.5c0.6-0.2,1.2-0.6,1.7-1.1c0.5-0.5,0.9-1.1,1.1-1.7c0.2-0.6,0.4-1.3,0.5-2.4
		c0-1,0.1-1.4,0.1-4s0-3-0.1-4C34.7,19.9,34.5,19.2,34.3,18.6z M33,28.9c0,1-0.2,1.5-0.3,1.8c-0.2,0.5-0.4,0.8-0.7,1.1
		s-0.7,0.5-1.1,0.7c-0.3,0.1-0.9,0.3-1.8,0.3c-1,0-1.3,0.1-3.9,0.1s-2.9,0-3.9-0.1c-1,0-1.5-0.2-1.8-0.3c-0.5-0.2-0.8-0.4-1.1-0.7
		c-0.3-0.3-0.5-0.7-0.7-1.1c-0.1-0.3-0.3-0.9-0.3-1.8c0-1-0.1-1.3-0.1-3.9s0-2.9,0.1-3.9c0-1,0.2-1.5,0.3-1.8
		c0.2-0.5,0.4-0.8,0.7-1.1c0.3-0.3,0.7-0.5,1.1-0.7c0.3-0.1,0.9-0.3,1.8-0.3c1,0,1.3-0.1,3.9-0.1s2.9,0,3.9,0.1c1,0,1.5,0.2,1.8,0.3
		c0.5,0.2,0.8,0.4,1.1,0.7c0.3,0.3,0.5,0.7,0.7,1.1c0.1,0.3,0.3,0.9,0.3,1.8c0,1,0.1,1.3,0.1,3.9S33,27.9,33,28.9z"/>
	<path id="XMLID_145_" fill="#FFFFFF" d="M25,20c-2.8,0-5,2.2-5,5s2.2,5,5,5s5-2.2,5-5S27.8,20,25,20z M25,28.3
		c-1.8,0-3.3-1.5-3.3-3.3c0-1.8,1.5-3.3,3.3-3.3c1.8,0,3.3,1.5,3.3,3.3C28.3,26.8,26.8,28.3,25,28.3z"/>
	<circle id="XMLID_143_" fill="#FFFFFF" cx="30.2" cy="19.8" r="1.2"/>
</g>
</svg>
