<?xml version="1.0" encoding="utf-8"?>
<!-- Generator: Adobe Illustrator 17.1.0, SVG Export Plug-In . SVG Version: 6.00 Build 0)  -->
<!DOCTYPE svg PUBLIC "-//W3C//DTD SVG 1.1//EN" "http://www.w3.org/Graphics/SVG/1.1/DTD/svg11.dtd">
<svg version="1.1" id="Capa_1" xmlns="http://www.w3.org/2000/svg" xmlns:xlink="http://www.w3.org/1999/xlink" x="0px" y="0px"
	 viewBox="0 0 612 792" enable-background="new 0 0 612 792" xml:space="preserve">
<g>
	<g>
		<path fill="#AAAAAA" d="M310.1,327.7c-26.5,0-47.9,21.5-47.9,47.9c0,26.5,21.5,47.9,47.9,47.9c26.5,0,47.9-21.5,47.9-47.9
			C358,349.1,336.6,327.7,310.1,327.7z M337.5,396.6l-8.4,0.1c0,0-1.8,0.4-4.2-1.3c-3.1-2.2-6.1-7.8-8.4-7c-2.3,0.7-2.3,5.8-2.3,5.8
			s0,1.1-0.5,1.7c-0.6,0.6-1.7,0.8-1.7,0.8h-3.8c0,0-8.3,0.5-15.6-7.1c-8-8.3-15-24.8-15-24.8s-0.4-1.1,0-1.6
			c0.5-0.6,1.8-0.6,1.8-0.6l9-0.1c0,0,0.9,0.1,1.4,0.6c0.5,0.4,0.8,1.1,0.8,1.1s1.4,3.7,3.4,7c3.8,6.5,5.5,7.9,6.8,7.2
			c1.9-1,1.3-9.2,1.3-9.2s0-3-0.9-4.3c-0.8-1-2.2-1.3-2.8-1.4c-0.5-0.1,0.3-1.2,1.4-1.8c1.6-0.8,4.5-0.8,7.9-0.8
			c2.6,0,3.4,0.2,4.4,0.4c3.1,0.8,2,3.6,2,10.6c0,2.2-0.4,5.3,1.2,6.4c0.7,0.4,2.4,0.1,6.6-7.1c2-3.4,3.5-7.4,3.5-7.4s0.3-0.7,0.8-1
			c0.5-0.3,1.2-0.2,1.2-0.2l9.5-0.1c0,0,2.8-0.3,3.3,0.9c0.5,1.3-1.1,4.5-4.9,9.6c-6.3,8.5-7.1,7.7-1.8,12.6c5,4.7,6.1,7,6.2,7.2
			C341.9,396.3,337.5,396.6,337.5,396.6z"/>
	</g>
</g>
</svg>
