<svg xmlns="http://www.w3.org/2000/svg" viewBox="0 0 467.482 136.064">
  <defs>
    <style>
      .cls-1, .cls-3 {
        fill: none;
        stroke: #9b9a9b;
        stroke-miterlimit: 10;
      }

      .cls-1 {
        stroke-width: 2px;
      }

      .cls-2 {
        fill: #9b9a9b;
      }

      .cls-3 {
        stroke-width: 1.45px;
      }
    </style>
  </defs>
  <title>logo kon gray</title>
  <g id="Layer_2" data-name="Layer 2">
    <rect class="cls-1" x="1" y="1" width="465.451" height="121.84"/>
    <g>
      <path class="cls-2" d="M191.261,245.826h-24.6l-6,20.4,7.8,3v1.2h-18v-1.2l7.8-3,23.4-81.6h1.8l25.2,82.8,7.2,1.8v1.2h-25.2v-1.2l7.2-1.8Zm-24-2.28h23.28l-12-39.72Z" transform="translate(-15.244 -165.561)"/>
      <path class="cls-3" d="M247.3,186.426a46.937,46.937,0,0,1,13.319,1.68,28.4,28.4,0,0,1,9.36,4.56,18.068,18.068,0,0,1,7.319,14.76,17.436,17.436,0,0,1-1.02,6.18,18.537,18.537,0,0,1-2.64,4.8,15.861,15.861,0,0,1-3.78,3.54,29.068,29.068,0,0,1-4.32,2.4,37.078,37.078,0,0,1-11.64,2.88,32.635,32.635,0,0,1,9.6,2.52,23.643,23.643,0,0,1,6.96,4.92,14.105,14.105,0,0,1,3.84,8.76l2.4,21a5.885,5.885,0,0,0,1.08,3.24,2.5,2.5,0,0,0,1.92.96,2.352,2.352,0,0,0,1.26-.42,7.354,7.354,0,0,0,1.26-1.021,5.945,5.945,0,0,0,1.08-1.56l1.2,1.2a8.523,8.523,0,0,1-2.04,2.76,12.282,12.282,0,0,1-2.819,1.8,10.641,10.641,0,0,1-10.8-1.5,8.549,8.549,0,0,1-2.939-5.46l-2.4-21a28.974,28.974,0,0,0-1.56-6.9,12.6,12.6,0,0,0-2.94-4.62,11.182,11.182,0,0,0-4.74-2.64,25.159,25.159,0,0,0-6.959-.84h-4.8v39l7.2,1.8v1.2H225.1v-1.2l7.2-1.8v-78l-7.2-1.8v-1.2Zm18.6,21q0-9-4.8-13.8t-13.8-4.8h-4.8v37.2h4.8q9,0,13.8-4.8T265.9,207.426Z" transform="translate(-15.244 -165.561)"/>
      <path class="cls-2" d="M324.34,267.426l7.2,1.8v1.2h-24.6v-1.2l7.2-1.8v-78.6h-12.6a21.649,21.649,0,0,1-2.04,9.36,26.308,26.308,0,0,1-5.16,7.44h-1.2q.119-1.559.24-3.24.119-1.44.24-3.06t.12-3.3q0-2.279-.12-4.02t-.24-3.06q-.12-1.44-.24-2.52h52.2a18.556,18.556,0,0,0-.359,2.52q-.122,1.322-.181,3.06t-.06,4.02q0,1.682.06,3.3t.181,3.06q.117,1.682.359,3.24h-1.2a26.227,26.227,0,0,1-5.159-7.44,21.621,21.621,0,0,1-2.04-9.36h-12.6Z" transform="translate(-15.244 -165.561)"/>
    </g>
  </g>
</svg>
